<mxfile host="app.diagrams.net" modified="2022-07-28T19:44:00.586Z" agent="5.0 (Windows)" etag="svSV6g3ahntKUjq6okCE" version="20.2.2" type="github">
  <diagram id="C5RBs43oDa-KdzZeNtuy" name="Page-1">
    <mxGraphModel dx="1453" dy="731" grid="1" gridSize="10" guides="1" tooltips="1" connect="1" arrows="1" fold="1" page="1" pageScale="1" pageWidth="827" pageHeight="1169" math="0" shadow="0">
      <root>
        <mxCell id="WIyWlLk6GJQsqaUBKTNV-0" />
        <mxCell id="WIyWlLk6GJQsqaUBKTNV-1" parent="WIyWlLk6GJQsqaUBKTNV-0" />
        <mxCell id="VKYqEhsGUvJdusKVCXXP-0" value="&lt;div style=&quot;font-size: 12px;&quot; align=&quot;justify&quot;&gt;&lt;b style=&quot;font-size: 12px;&quot;&gt;N&lt;/b&gt;- размерность векторов&lt;br style=&quot;font-size: 12px;&quot;&gt;&lt;b style=&quot;font-size: 12px;&quot;&gt;vecA &lt;/b&gt;- вектор размерности N&lt;/div&gt;&lt;div style=&quot;font-size: 12px;&quot; align=&quot;justify&quot;&gt;&lt;b style=&quot;font-size: 12px;&quot;&gt;MaxVec &lt;/b&gt;- максимальное&amp;nbsp; значение из вектора &lt;br style=&quot;font-size: 12px;&quot;&gt;&lt;/div&gt;&lt;div style=&quot;font-size: 12px;&quot; align=&quot;justify&quot;&gt;I_&lt;b style=&quot;font-size: 12px;&quot;&gt;Max - индекс &lt;/b&gt;максимального&amp;nbsp; значения из вектора &lt;br style=&quot;font-size: 12px;&quot;&gt;&lt;/div&gt;&lt;div style=&quot;font-size: 12px;&quot;&gt;&lt;div style=&quot;font-size: 12px;&quot; align=&quot;justify&quot;&gt;&lt;b style=&quot;font-size: 12px;&quot;&gt;MinVec &lt;/b&gt;- минимальное значение из вектора &lt;br style=&quot;font-size: 12px;&quot;&gt;&lt;/div&gt;&lt;div style=&quot;font-size: 12px;&quot; align=&quot;justify&quot;&gt;I_&lt;b style=&quot;font-size: 12px;&quot;&gt;Min - индекс &lt;/b&gt;минимального значения из вектора &lt;br style=&quot;font-size: 12px;&quot;&gt;&lt;/div&gt;&lt;/div&gt;" style="text;html=1;strokeColor=none;fillColor=none;align=center;verticalAlign=middle;whiteSpace=wrap;rounded=0;fontFamily=Helvetica;fontSize=12;" parent="WIyWlLk6GJQsqaUBKTNV-1" vertex="1">
          <mxGeometry x="18" y="220" width="310" height="100" as="geometry" />
        </mxCell>
        <mxCell id="s0az6aumU0_sVPZmCAAS-1" value="&lt;font style=&quot;font-size: 12px;&quot; face=&quot;Helvetica&quot;&gt;&lt;span style=&quot;&quot;&gt;Задача 1. Нарисовать блок-схему Нахождение индексов максимального и минимального элемента массива&lt;br&gt;Задача 2. Нарисовать блок-схему Задание на «разворот» массива. Нужно перевернуть массив и записать его в обратном порядке.&lt;br&gt;Задача 3** (задача повышенной сложности). Нарисовать блок-схему Найти сумму элементов массива, лежащих между максимальным и&lt;br&gt;минимальным по значению элементами&lt;br&gt;Задача 4*. Нарисовать блок-схему Найти среднее арифметическое среди всех элементов массива.&lt;/span&gt;&lt;br&gt;&lt;span style=&quot;&quot;&gt;&lt;/span&gt;&lt;/font&gt;" style="text;html=1;strokeColor=none;fillColor=none;align=left;verticalAlign=middle;whiteSpace=wrap;rounded=0;fontSize=14;" parent="WIyWlLk6GJQsqaUBKTNV-1" vertex="1">
          <mxGeometry x="18" width="790" height="110" as="geometry" />
        </mxCell>
        <mxCell id="ObDRGe4wSJezjXT2JfDT-131" value="" style="edgeStyle=orthogonalEdgeStyle;rounded=0;orthogonalLoop=1;jettySize=auto;html=1;fontFamily=Helvetica;fontSize=12;" parent="WIyWlLk6GJQsqaUBKTNV-1" source="s0az6aumU0_sVPZmCAAS-45" target="ObDRGe4wSJezjXT2JfDT-101" edge="1">
          <mxGeometry relative="1" as="geometry" />
        </mxCell>
        <mxCell id="s0az6aumU0_sVPZmCAAS-45" value="Start" style="strokeWidth=2;html=1;shape=mxgraph.flowchart.start_1;whiteSpace=wrap;fillColor=#FF0000;" parent="WIyWlLk6GJQsqaUBKTNV-1" vertex="1">
          <mxGeometry x="370" y="120" width="100" height="60" as="geometry" />
        </mxCell>
        <mxCell id="s0az6aumU0_sVPZmCAAS-65" value="&lt;b&gt;Задача 1&lt;/b&gt;" style="text;html=1;align=center;verticalAlign=middle;resizable=0;points=[];autosize=1;strokeColor=none;fillColor=none;fontSize=14;fontFamily=Helvetica;" parent="WIyWlLk6GJQsqaUBKTNV-1" vertex="1">
          <mxGeometry x="30" y="110" width="80" height="30" as="geometry" />
        </mxCell>
        <mxCell id="ObDRGe4wSJezjXT2JfDT-99" value="End" style="strokeWidth=2;html=1;shape=mxgraph.flowchart.start_1;whiteSpace=wrap;fillColor=#FF0000;" parent="WIyWlLk6GJQsqaUBKTNV-1" vertex="1">
          <mxGeometry x="680" y="620" width="100" height="60" as="geometry" />
        </mxCell>
        <mxCell id="ObDRGe4wSJezjXT2JfDT-100" value="" style="edgeStyle=orthogonalEdgeStyle;rounded=0;orthogonalLoop=1;jettySize=auto;html=1;fontFamily=Helvetica;fontSize=14;" parent="WIyWlLk6GJQsqaUBKTNV-1" source="ObDRGe4wSJezjXT2JfDT-101" target="ObDRGe4wSJezjXT2JfDT-106" edge="1">
          <mxGeometry relative="1" as="geometry" />
        </mxCell>
        <mxCell id="ObDRGe4wSJezjXT2JfDT-101" value="&lt;div&gt;Input&lt;/div&gt;&lt;div&gt;&lt;b&gt;N, vecA [0..N]&lt;/b&gt;&lt;/div&gt;&lt;div&gt;&lt;b&gt;VecOUT = vecA&lt;/b&gt;&lt;/div&gt;&lt;div&gt;&lt;b&gt;I_Max = 0&lt;br&gt;&lt;/b&gt;&lt;/div&gt;&lt;div&gt;&lt;b&gt;I_Min = 0&lt;br&gt;&lt;/b&gt;&lt;/div&gt;" style="shape=parallelogram;perimeter=parallelogramPerimeter;whiteSpace=wrap;html=1;fixedSize=1;fillColor=#00FF00;" parent="WIyWlLk6GJQsqaUBKTNV-1" vertex="1">
          <mxGeometry x="340" y="220" width="160" height="80" as="geometry" />
        </mxCell>
        <mxCell id="ObDRGe4wSJezjXT2JfDT-102" value="" style="edgeStyle=orthogonalEdgeStyle;rounded=0;orthogonalLoop=1;jettySize=auto;html=1;fontFamily=Helvetica;fontSize=14;" parent="WIyWlLk6GJQsqaUBKTNV-1" source="ObDRGe4wSJezjXT2JfDT-103" target="ObDRGe4wSJezjXT2JfDT-99" edge="1">
          <mxGeometry relative="1" as="geometry" />
        </mxCell>
        <mxCell id="ObDRGe4wSJezjXT2JfDT-103" value="&lt;div&gt;Output&lt;/div&gt;&lt;div&gt;I_MAX&lt;/div&gt;&lt;div&gt;I_MIN&lt;br&gt;&lt;/div&gt;" style="shape=document;whiteSpace=wrap;html=1;boundedLbl=1;fillColor=#00FF00;" parent="WIyWlLk6GJQsqaUBKTNV-1" vertex="1">
          <mxGeometry x="670" y="480.00000000000006" width="120" height="80" as="geometry" />
        </mxCell>
        <mxCell id="ObDRGe4wSJezjXT2JfDT-105" value="" style="edgeStyle=orthogonalEdgeStyle;rounded=0;orthogonalLoop=1;jettySize=auto;html=1;fontFamily=Helvetica;fontSize=14;" parent="WIyWlLk6GJQsqaUBKTNV-1" source="ObDRGe4wSJezjXT2JfDT-106" target="ObDRGe4wSJezjXT2JfDT-109" edge="1">
          <mxGeometry relative="1" as="geometry">
            <Array as="points">
              <mxPoint x="420" y="460.06" />
              <mxPoint x="280" y="460.06" />
            </Array>
          </mxGeometry>
        </mxCell>
        <mxCell id="ObDRGe4wSJezjXT2JfDT-127" value="" style="edgeStyle=orthogonalEdgeStyle;rounded=0;orthogonalLoop=1;jettySize=auto;html=1;fontFamily=Helvetica;fontSize=12;" parent="WIyWlLk6GJQsqaUBKTNV-1" target="ObDRGe4wSJezjXT2JfDT-126" edge="1">
          <mxGeometry relative="1" as="geometry">
            <mxPoint x="420" y="460.06" as="sourcePoint" />
            <Array as="points">
              <mxPoint x="550" y="460.06" />
            </Array>
          </mxGeometry>
        </mxCell>
        <mxCell id="ObDRGe4wSJezjXT2JfDT-106" value="&lt;div&gt;Count&lt;/div&gt;&lt;div&gt;I = 1, N, 1&lt;br&gt;&lt;/div&gt;" style="shape=hexagon;perimeter=hexagonPerimeter2;whiteSpace=wrap;html=1;fixedSize=1;fontFamily=Helvetica;fontSize=14;fillColor=#00FFFF;" parent="WIyWlLk6GJQsqaUBKTNV-1" vertex="1">
          <mxGeometry x="360" y="340" width="120" height="80" as="geometry" />
        </mxCell>
        <mxCell id="ObDRGe4wSJezjXT2JfDT-107" value="" style="edgeStyle=orthogonalEdgeStyle;rounded=0;orthogonalLoop=1;jettySize=auto;html=1;fontFamily=Helvetica;fontSize=14;" parent="WIyWlLk6GJQsqaUBKTNV-1" source="ObDRGe4wSJezjXT2JfDT-109" edge="1">
          <mxGeometry relative="1" as="geometry">
            <mxPoint x="120" y="540.06" as="targetPoint" />
          </mxGeometry>
        </mxCell>
        <mxCell id="ObDRGe4wSJezjXT2JfDT-108" value="NO" style="edgeLabel;html=1;align=center;verticalAlign=middle;resizable=0;points=[];fontSize=14;fontFamily=Helvetica;" parent="ObDRGe4wSJezjXT2JfDT-107" vertex="1" connectable="0">
          <mxGeometry x="-0.1858" y="-1" relative="1" as="geometry">
            <mxPoint as="offset" />
          </mxGeometry>
        </mxCell>
        <mxCell id="ObDRGe4wSJezjXT2JfDT-109" value="vecOUT[I_MAX] &amp;lt; vecOUT [I]" style="strokeWidth=2;html=1;shape=mxgraph.flowchart.decision;whiteSpace=wrap;labelBackgroundColor=none;fontColor=default;fillColor=#FFFF00;" parent="WIyWlLk6GJQsqaUBKTNV-1" vertex="1">
          <mxGeometry x="176.5" y="490.00000000000006" width="200" height="100" as="geometry" />
        </mxCell>
        <mxCell id="_BJFXlvesHHBChjdj6PS-3" value="" style="edgeStyle=orthogonalEdgeStyle;rounded=0;orthogonalLoop=1;jettySize=auto;html=1;fontFamily=Helvetica;fontSize=12;" parent="WIyWlLk6GJQsqaUBKTNV-1" source="ObDRGe4wSJezjXT2JfDT-111" target="_BJFXlvesHHBChjdj6PS-2" edge="1">
          <mxGeometry relative="1" as="geometry" />
        </mxCell>
        <mxCell id="ObDRGe4wSJezjXT2JfDT-111" value="&lt;div align=&quot;center&quot;&gt;&lt;pre dir=&quot;ltr&quot; style=&quot;&quot; id=&quot;tw-target-text&quot; data-placeholder=&quot;Перевод&quot; class=&quot;tw-data-text tw-text-large tw-ta&quot;&gt;&lt;b&gt;&lt;span class=&quot;Y2IQFc&quot; lang=&quot;en&quot;&gt;I_MAX = I&lt;/span&gt;&lt;/b&gt;&lt;/pre&gt;&lt;/div&gt;" style="rounded=0;whiteSpace=wrap;html=1;fillColor=#00FFFF;align=center;" parent="WIyWlLk6GJQsqaUBKTNV-1" vertex="1">
          <mxGeometry x="196.5" y="630" width="160" height="40" as="geometry" />
        </mxCell>
        <mxCell id="ObDRGe4wSJezjXT2JfDT-112" value="YES" style="edgeStyle=orthogonalEdgeStyle;rounded=0;orthogonalLoop=1;jettySize=auto;html=1;fontFamily=Helvetica;fontSize=14;" parent="WIyWlLk6GJQsqaUBKTNV-1" target="ObDRGe4wSJezjXT2JfDT-111" edge="1">
          <mxGeometry relative="1" as="geometry">
            <mxPoint x="276.50000000000045" y="590" as="sourcePoint" />
          </mxGeometry>
        </mxCell>
        <mxCell id="ObDRGe4wSJezjXT2JfDT-115" value="" style="edgeStyle=orthogonalEdgeStyle;rounded=0;orthogonalLoop=1;jettySize=auto;html=1;fontFamily=Helvetica;fontSize=14;" parent="WIyWlLk6GJQsqaUBKTNV-1" source="ObDRGe4wSJezjXT2JfDT-116" target="ObDRGe4wSJezjXT2JfDT-106" edge="1">
          <mxGeometry relative="1" as="geometry">
            <Array as="points">
              <mxPoint x="120" y="380.00000000000006" />
            </Array>
          </mxGeometry>
        </mxCell>
        <mxCell id="ObDRGe4wSJezjXT2JfDT-116" value="" style="shape=waypoint;sketch=0;size=6;pointerEvents=1;points=[];fillColor=#00FFFF;resizable=0;rotatable=0;perimeter=centerPerimeter;snapToPoint=1;rounded=0;" parent="WIyWlLk6GJQsqaUBKTNV-1" vertex="1">
          <mxGeometry x="100" y="360.00000000000006" width="40" height="40" as="geometry" />
        </mxCell>
        <mxCell id="ObDRGe4wSJezjXT2JfDT-119" value="" style="edgeStyle=orthogonalEdgeStyle;rounded=0;orthogonalLoop=1;jettySize=auto;html=1;fontFamily=Helvetica;fontSize=14;exitX=1;exitY=0.5;exitDx=0;exitDy=0;" parent="WIyWlLk6GJQsqaUBKTNV-1" source="ObDRGe4wSJezjXT2JfDT-106" target="ObDRGe4wSJezjXT2JfDT-103" edge="1">
          <mxGeometry relative="1" as="geometry">
            <mxPoint x="766.5" y="440.00000000000006" as="sourcePoint" />
          </mxGeometry>
        </mxCell>
        <mxCell id="ObDRGe4wSJezjXT2JfDT-130" value="NO" style="edgeStyle=orthogonalEdgeStyle;rounded=0;orthogonalLoop=1;jettySize=auto;html=1;fontFamily=Helvetica;fontSize=12;startArrow=none;" parent="WIyWlLk6GJQsqaUBKTNV-1" source="_BJFXlvesHHBChjdj6PS-2" target="ObDRGe4wSJezjXT2JfDT-116" edge="1">
          <mxGeometry x="-0.1856" y="-280" relative="1" as="geometry">
            <mxPoint x="120" y="610.06" as="targetPoint" />
            <Array as="points" />
            <mxPoint as="offset" />
          </mxGeometry>
        </mxCell>
        <mxCell id="ObDRGe4wSJezjXT2JfDT-121" value="vecOUT[I_Min] &amp;gt; vecOUT[I]" style="strokeWidth=2;html=1;shape=mxgraph.flowchart.decision;whiteSpace=wrap;labelBackgroundColor=none;fontColor=default;fillColor=#FFFF00;" parent="WIyWlLk6GJQsqaUBKTNV-1" vertex="1">
          <mxGeometry x="450" y="490.00000000000006" width="200" height="100" as="geometry" />
        </mxCell>
        <mxCell id="ObDRGe4wSJezjXT2JfDT-122" value="&lt;div align=&quot;center&quot;&gt;&lt;pre dir=&quot;ltr&quot; style=&quot;&quot; id=&quot;tw-target-text&quot; data-placeholder=&quot;Перевод&quot; class=&quot;tw-data-text tw-text-large tw-ta&quot;&gt;&lt;b&gt;&lt;span class=&quot;Y2IQFc&quot; lang=&quot;en&quot;&gt;I_MIN = I&lt;/span&gt;&lt;/b&gt;&lt;/pre&gt;&lt;/div&gt;" style="rounded=0;whiteSpace=wrap;html=1;fillColor=#00FFFF;align=center;" parent="WIyWlLk6GJQsqaUBKTNV-1" vertex="1">
          <mxGeometry x="470" y="630" width="160" height="40" as="geometry" />
        </mxCell>
        <mxCell id="ObDRGe4wSJezjXT2JfDT-123" value="YES" style="edgeStyle=orthogonalEdgeStyle;rounded=0;orthogonalLoop=1;jettySize=auto;html=1;fontFamily=Helvetica;fontSize=14;exitX=0.5;exitY=1;exitDx=0;exitDy=0;exitPerimeter=0;" parent="WIyWlLk6GJQsqaUBKTNV-1" source="ObDRGe4wSJezjXT2JfDT-121" target="ObDRGe4wSJezjXT2JfDT-122" edge="1">
          <mxGeometry relative="1" as="geometry">
            <mxPoint x="576.5000000000005" y="590" as="sourcePoint" />
          </mxGeometry>
        </mxCell>
        <mxCell id="ObDRGe4wSJezjXT2JfDT-126" value="" style="shape=waypoint;sketch=0;size=6;pointerEvents=1;points=[];fillColor=#00FFFF;resizable=0;rotatable=0;perimeter=centerPerimeter;snapToPoint=1;fontSize=14;" parent="WIyWlLk6GJQsqaUBKTNV-1" vertex="1">
          <mxGeometry x="530" y="465.06000000000006" width="40" height="40" as="geometry" />
        </mxCell>
        <mxCell id="_BJFXlvesHHBChjdj6PS-2" value="" style="shape=waypoint;sketch=0;size=6;pointerEvents=1;points=[];fillColor=#00FFFF;resizable=0;rotatable=0;perimeter=centerPerimeter;snapToPoint=1;rounded=0;" parent="WIyWlLk6GJQsqaUBKTNV-1" vertex="1">
          <mxGeometry x="100" y="630" width="40" height="40" as="geometry" />
        </mxCell>
        <mxCell id="_BJFXlvesHHBChjdj6PS-4" value="" style="edgeStyle=orthogonalEdgeStyle;rounded=0;orthogonalLoop=1;jettySize=auto;html=1;fontFamily=Helvetica;fontSize=12;endArrow=none;" parent="WIyWlLk6GJQsqaUBKTNV-1" source="ObDRGe4wSJezjXT2JfDT-121" target="_BJFXlvesHHBChjdj6PS-2" edge="1">
          <mxGeometry x="-0.8454" relative="1" as="geometry">
            <mxPoint x="119.99999999999989" y="380.00000000000017" as="targetPoint" />
            <Array as="points">
              <mxPoint x="390" y="540.06" />
              <mxPoint x="390" y="680.06" />
              <mxPoint x="120" y="680.06" />
            </Array>
            <mxPoint as="offset" />
            <mxPoint x="450" y="539.9910344827586" as="sourcePoint" />
          </mxGeometry>
        </mxCell>
        <mxCell id="_BJFXlvesHHBChjdj6PS-7" value="" style="edgeStyle=orthogonalEdgeStyle;rounded=0;orthogonalLoop=1;jettySize=auto;html=1;fontFamily=Helvetica;fontSize=12;" parent="WIyWlLk6GJQsqaUBKTNV-1" source="_BJFXlvesHHBChjdj6PS-8" target="_BJFXlvesHHBChjdj6PS-12" edge="1">
          <mxGeometry relative="1" as="geometry" />
        </mxCell>
        <mxCell id="_BJFXlvesHHBChjdj6PS-8" value="Start" style="strokeWidth=2;html=1;shape=mxgraph.flowchart.start_1;whiteSpace=wrap;fillColor=#FF0000;" parent="WIyWlLk6GJQsqaUBKTNV-1" vertex="1">
          <mxGeometry x="64" y="720" width="100" height="60" as="geometry" />
        </mxCell>
        <mxCell id="_BJFXlvesHHBChjdj6PS-9" value="&lt;b&gt;Задача 2&lt;br&gt;&lt;/b&gt;" style="text;html=1;align=center;verticalAlign=middle;resizable=0;points=[];autosize=1;strokeColor=none;fillColor=none;fontSize=14;fontFamily=Helvetica;" parent="WIyWlLk6GJQsqaUBKTNV-1" vertex="1">
          <mxGeometry x="30" y="680" width="80" height="30" as="geometry" />
        </mxCell>
        <mxCell id="_BJFXlvesHHBChjdj6PS-10" value="End" style="strokeWidth=2;html=1;shape=mxgraph.flowchart.start_1;whiteSpace=wrap;fillColor=#FF0000;" parent="WIyWlLk6GJQsqaUBKTNV-1" vertex="1">
          <mxGeometry x="230" y="1100" width="100" height="60" as="geometry" />
        </mxCell>
        <mxCell id="_BJFXlvesHHBChjdj6PS-11" value="" style="edgeStyle=orthogonalEdgeStyle;rounded=0;orthogonalLoop=1;jettySize=auto;html=1;fontFamily=Helvetica;fontSize=14;" parent="WIyWlLk6GJQsqaUBKTNV-1" source="_BJFXlvesHHBChjdj6PS-12" target="_BJFXlvesHHBChjdj6PS-17" edge="1">
          <mxGeometry relative="1" as="geometry" />
        </mxCell>
        <mxCell id="_BJFXlvesHHBChjdj6PS-12" value="&lt;div&gt;Input&lt;/div&gt;&lt;div&gt;&lt;b&gt;N, vecA [0..N]&lt;/b&gt;&lt;/div&gt;" style="shape=parallelogram;perimeter=parallelogramPerimeter;whiteSpace=wrap;html=1;fixedSize=1;fillColor=#00FF00;" parent="WIyWlLk6GJQsqaUBKTNV-1" vertex="1">
          <mxGeometry x="34" y="820" width="160" height="60" as="geometry" />
        </mxCell>
        <mxCell id="_BJFXlvesHHBChjdj6PS-13" value="" style="edgeStyle=orthogonalEdgeStyle;rounded=0;orthogonalLoop=1;jettySize=auto;html=1;fontFamily=Helvetica;fontSize=14;" parent="WIyWlLk6GJQsqaUBKTNV-1" source="_BJFXlvesHHBChjdj6PS-14" target="_BJFXlvesHHBChjdj6PS-10" edge="1">
          <mxGeometry relative="1" as="geometry" />
        </mxCell>
        <mxCell id="_BJFXlvesHHBChjdj6PS-14" value="&lt;div&gt;Output&lt;/div&gt;vecA" style="shape=document;whiteSpace=wrap;html=1;boundedLbl=1;fillColor=#00FF00;" parent="WIyWlLk6GJQsqaUBKTNV-1" vertex="1">
          <mxGeometry x="220" y="1000" width="120" height="80" as="geometry" />
        </mxCell>
        <mxCell id="_BJFXlvesHHBChjdj6PS-34" value="" style="edgeStyle=orthogonalEdgeStyle;rounded=0;orthogonalLoop=1;jettySize=auto;html=1;fontFamily=Helvetica;fontSize=12;" parent="WIyWlLk6GJQsqaUBKTNV-1" source="_BJFXlvesHHBChjdj6PS-17" target="_BJFXlvesHHBChjdj6PS-22" edge="1">
          <mxGeometry relative="1" as="geometry" />
        </mxCell>
        <mxCell id="53o0GiQYbjhxHgjqAaeX-1" value="" style="edgeStyle=orthogonalEdgeStyle;rounded=0;orthogonalLoop=1;jettySize=auto;html=1;fontFamily=Helvetica;fontSize=12;" edge="1" parent="WIyWlLk6GJQsqaUBKTNV-1" source="_BJFXlvesHHBChjdj6PS-17" target="53o0GiQYbjhxHgjqAaeX-0">
          <mxGeometry relative="1" as="geometry" />
        </mxCell>
        <mxCell id="_BJFXlvesHHBChjdj6PS-17" value="&lt;div&gt;Count&lt;/div&gt;&lt;div&gt;I = 0, N, 1&lt;br&gt;&lt;/div&gt;" style="shape=hexagon;perimeter=hexagonPerimeter2;whiteSpace=wrap;html=1;fixedSize=1;fontFamily=Helvetica;fontSize=14;fillColor=#00FFFF;" parent="WIyWlLk6GJQsqaUBKTNV-1" vertex="1">
          <mxGeometry x="54" y="920" width="120" height="80" as="geometry" />
        </mxCell>
        <mxCell id="_BJFXlvesHHBChjdj6PS-36" value="" style="edgeStyle=orthogonalEdgeStyle;rounded=0;orthogonalLoop=1;jettySize=auto;html=1;fontFamily=Helvetica;fontSize=12;" parent="WIyWlLk6GJQsqaUBKTNV-1" source="_BJFXlvesHHBChjdj6PS-22" edge="1">
          <mxGeometry relative="1" as="geometry">
            <mxPoint x="20" y="1060" as="targetPoint" />
          </mxGeometry>
        </mxCell>
        <mxCell id="_BJFXlvesHHBChjdj6PS-22" value="vecOUT[N-I]=vecA[I]" style="rounded=0;whiteSpace=wrap;html=1;fillColor=#00FFFF;align=center;" parent="WIyWlLk6GJQsqaUBKTNV-1" vertex="1">
          <mxGeometry x="34" y="1040" width="160" height="40" as="geometry" />
        </mxCell>
        <mxCell id="_BJFXlvesHHBChjdj6PS-38" value="" style="edgeStyle=orthogonalEdgeStyle;rounded=0;orthogonalLoop=1;jettySize=auto;html=1;fontFamily=Helvetica;fontSize=12;startArrow=none;entryX=0;entryY=0.5;entryDx=0;entryDy=0;" parent="WIyWlLk6GJQsqaUBKTNV-1" target="_BJFXlvesHHBChjdj6PS-17" edge="1">
          <mxGeometry relative="1" as="geometry">
            <mxPoint x="20" y="1060" as="sourcePoint" />
            <Array as="points">
              <mxPoint x="10" y="1060" />
              <mxPoint x="10" y="960" />
            </Array>
            <mxPoint x="20" y="960" as="targetPoint" />
          </mxGeometry>
        </mxCell>
        <mxCell id="_BJFXlvesHHBChjdj6PS-71" value="" style="edgeStyle=orthogonalEdgeStyle;rounded=0;orthogonalLoop=1;jettySize=auto;html=1;fontFamily=Helvetica;fontSize=12;" parent="WIyWlLk6GJQsqaUBKTNV-1" source="_BJFXlvesHHBChjdj6PS-42" target="_BJFXlvesHHBChjdj6PS-66" edge="1">
          <mxGeometry relative="1" as="geometry" />
        </mxCell>
        <mxCell id="_BJFXlvesHHBChjdj6PS-42" value="&lt;div&gt;&lt;pre dir=&quot;ltr&quot; style=&quot;text-align:left&quot; id=&quot;tw-target-text&quot; data-placeholder=&quot;Перевод&quot; class=&quot;tw-data-text tw-text-large tw-ta&quot;&gt;&lt;span class=&quot;Y2IQFc&quot; lang=&quot;en&quot;&gt;Index I_MAX_I_MIN&lt;br&gt;&lt;/span&gt;&lt;/pre&gt;&lt;/div&gt;&lt;div&gt;Input: N, vecA&lt;/div&gt;&lt;div&gt;Output: I_MAX, I_MIN&lt;br&gt;&lt;/div&gt;" style="shape=process;whiteSpace=wrap;html=1;backgroundOutline=1;fontFamily=Helvetica;fontSize=14;fillColor=#FF8040;" parent="WIyWlLk6GJQsqaUBKTNV-1" vertex="1">
          <mxGeometry x="349" y="1360" width="200" height="80" as="geometry" />
        </mxCell>
        <mxCell id="_BJFXlvesHHBChjdj6PS-43" value="" style="shape=flexArrow;endArrow=classic;html=1;rounded=0;fontFamily=Helvetica;fontSize=12;" parent="WIyWlLk6GJQsqaUBKTNV-1" edge="1">
          <mxGeometry width="50" height="50" relative="1" as="geometry">
            <mxPoint x="600" y="159.71000000000004" as="sourcePoint" />
            <mxPoint x="530" y="159.71000000000004" as="targetPoint" />
            <Array as="points">
              <mxPoint x="560" y="159.70999999999998" />
            </Array>
          </mxGeometry>
        </mxCell>
        <mxCell id="_BJFXlvesHHBChjdj6PS-44" value="&lt;b&gt;Для задачи 3&lt;/b&gt;" style="text;html=1;align=center;verticalAlign=middle;resizable=0;points=[];autosize=1;strokeColor=none;fillColor=none;fontSize=14;fontFamily=Helvetica;" parent="WIyWlLk6GJQsqaUBKTNV-1" vertex="1">
          <mxGeometry x="690" y="90" width="110" height="30" as="geometry" />
        </mxCell>
        <mxCell id="_BJFXlvesHHBChjdj6PS-46" value="" style="edgeStyle=orthogonalEdgeStyle;rounded=0;orthogonalLoop=1;jettySize=auto;html=1;fontFamily=Helvetica;fontSize=12;" parent="WIyWlLk6GJQsqaUBKTNV-1" source="_BJFXlvesHHBChjdj6PS-47" target="_BJFXlvesHHBChjdj6PS-51" edge="1">
          <mxGeometry relative="1" as="geometry" />
        </mxCell>
        <mxCell id="_BJFXlvesHHBChjdj6PS-47" value="Start" style="strokeWidth=2;html=1;shape=mxgraph.flowchart.start_1;whiteSpace=wrap;fillColor=#FF0000;" parent="WIyWlLk6GJQsqaUBKTNV-1" vertex="1">
          <mxGeometry x="399" y="1160" width="100" height="60" as="geometry" />
        </mxCell>
        <mxCell id="_BJFXlvesHHBChjdj6PS-48" value="&lt;b&gt;Задача 3&lt;br&gt;&lt;/b&gt;" style="text;html=1;align=center;verticalAlign=middle;resizable=0;points=[];autosize=1;strokeColor=none;fillColor=none;fontSize=14;fontFamily=Helvetica;" parent="WIyWlLk6GJQsqaUBKTNV-1" vertex="1">
          <mxGeometry x="40" y="1160" width="80" height="30" as="geometry" />
        </mxCell>
        <mxCell id="_BJFXlvesHHBChjdj6PS-65" value="" style="edgeStyle=orthogonalEdgeStyle;rounded=0;orthogonalLoop=1;jettySize=auto;html=1;fontFamily=Helvetica;fontSize=12;" parent="WIyWlLk6GJQsqaUBKTNV-1" source="_BJFXlvesHHBChjdj6PS-51" target="_BJFXlvesHHBChjdj6PS-42" edge="1">
          <mxGeometry relative="1" as="geometry" />
        </mxCell>
        <mxCell id="_BJFXlvesHHBChjdj6PS-51" value="&lt;div&gt;Input&lt;/div&gt;&lt;div&gt;&lt;b&gt;N, vecA [0..N]&lt;/b&gt;&lt;/div&gt;" style="shape=parallelogram;perimeter=parallelogramPerimeter;whiteSpace=wrap;html=1;fixedSize=1;fillColor=#00FF00;" parent="WIyWlLk6GJQsqaUBKTNV-1" vertex="1">
          <mxGeometry x="369" y="1260" width="160" height="60" as="geometry" />
        </mxCell>
        <mxCell id="_BJFXlvesHHBChjdj6PS-69" value="YES" style="edgeStyle=orthogonalEdgeStyle;rounded=0;orthogonalLoop=1;jettySize=auto;html=1;fontFamily=Helvetica;fontSize=12;" parent="WIyWlLk6GJQsqaUBKTNV-1" source="_BJFXlvesHHBChjdj6PS-66" target="_BJFXlvesHHBChjdj6PS-67" edge="1">
          <mxGeometry relative="1" as="geometry" />
        </mxCell>
        <mxCell id="_BJFXlvesHHBChjdj6PS-70" value="NO" style="edgeStyle=orthogonalEdgeStyle;rounded=0;orthogonalLoop=1;jettySize=auto;html=1;fontFamily=Helvetica;fontSize=12;" parent="WIyWlLk6GJQsqaUBKTNV-1" source="_BJFXlvesHHBChjdj6PS-66" target="_BJFXlvesHHBChjdj6PS-68" edge="1">
          <mxGeometry relative="1" as="geometry" />
        </mxCell>
        <mxCell id="_BJFXlvesHHBChjdj6PS-66" value="I_MAX &amp;gt;= I_MIN" style="strokeWidth=2;html=1;shape=mxgraph.flowchart.decision;whiteSpace=wrap;labelBackgroundColor=none;fontColor=default;fillColor=#FFFF00;" parent="WIyWlLk6GJQsqaUBKTNV-1" vertex="1">
          <mxGeometry x="349" y="1480" width="200" height="80" as="geometry" />
        </mxCell>
        <mxCell id="_BJFXlvesHHBChjdj6PS-90" value="" style="edgeStyle=orthogonalEdgeStyle;rounded=0;orthogonalLoop=1;jettySize=auto;html=1;fontFamily=Helvetica;fontSize=12;" parent="WIyWlLk6GJQsqaUBKTNV-1" source="_BJFXlvesHHBChjdj6PS-67" edge="1">
          <mxGeometry relative="1" as="geometry">
            <mxPoint x="209" y="1600" as="targetPoint" />
          </mxGeometry>
        </mxCell>
        <mxCell id="_BJFXlvesHHBChjdj6PS-67" value="&lt;div&gt;L = I_MIN&lt;/div&gt;&lt;div&gt;H = I_MAX&lt;br&gt;&lt;/div&gt;" style="rounded=0;whiteSpace=wrap;html=1;fillColor=#00FFFF;align=center;" parent="WIyWlLk6GJQsqaUBKTNV-1" vertex="1">
          <mxGeometry x="129" y="1500" width="160" height="40" as="geometry" />
        </mxCell>
        <mxCell id="_BJFXlvesHHBChjdj6PS-88" value="" style="edgeStyle=orthogonalEdgeStyle;rounded=0;orthogonalLoop=1;jettySize=auto;html=1;fontFamily=Helvetica;fontSize=12;" parent="WIyWlLk6GJQsqaUBKTNV-1" source="_BJFXlvesHHBChjdj6PS-68" target="_BJFXlvesHHBChjdj6PS-91" edge="1">
          <mxGeometry relative="1" as="geometry">
            <mxPoint x="689" y="1600" as="targetPoint" />
            <Array as="points">
              <mxPoint x="689" y="1600" />
            </Array>
          </mxGeometry>
        </mxCell>
        <mxCell id="_BJFXlvesHHBChjdj6PS-68" value="&lt;div&gt;L = I_MAX&lt;/div&gt;&lt;div&gt;H = I_MIN&lt;br&gt;&lt;/div&gt;" style="rounded=0;whiteSpace=wrap;html=1;fillColor=#00FFFF;align=center;" parent="WIyWlLk6GJQsqaUBKTNV-1" vertex="1">
          <mxGeometry x="609" y="1500" width="160" height="40" as="geometry" />
        </mxCell>
        <mxCell id="_BJFXlvesHHBChjdj6PS-72" value="End" style="strokeWidth=2;html=1;shape=mxgraph.flowchart.start_1;whiteSpace=wrap;fillColor=#FF0000;" parent="WIyWlLk6GJQsqaUBKTNV-1" vertex="1">
          <mxGeometry x="589" y="1820" width="100" height="60" as="geometry" />
        </mxCell>
        <mxCell id="_BJFXlvesHHBChjdj6PS-73" value="" style="edgeStyle=orthogonalEdgeStyle;rounded=0;orthogonalLoop=1;jettySize=auto;html=1;fontFamily=Helvetica;fontSize=14;" parent="WIyWlLk6GJQsqaUBKTNV-1" source="_BJFXlvesHHBChjdj6PS-74" target="_BJFXlvesHHBChjdj6PS-72" edge="1">
          <mxGeometry relative="1" as="geometry" />
        </mxCell>
        <mxCell id="_BJFXlvesHHBChjdj6PS-74" value="&lt;div&gt;Output&lt;/div&gt;SumVecA" style="shape=document;whiteSpace=wrap;html=1;boundedLbl=1;fillColor=#00FF00;" parent="WIyWlLk6GJQsqaUBKTNV-1" vertex="1">
          <mxGeometry x="579" y="1720" width="120" height="80" as="geometry" />
        </mxCell>
        <mxCell id="_BJFXlvesHHBChjdj6PS-99" value="" style="edgeStyle=orthogonalEdgeStyle;rounded=0;orthogonalLoop=1;jettySize=auto;html=1;fontFamily=Helvetica;fontSize=12;" parent="WIyWlLk6GJQsqaUBKTNV-1" source="_BJFXlvesHHBChjdj6PS-76" target="_BJFXlvesHHBChjdj6PS-96" edge="1">
          <mxGeometry relative="1" as="geometry" />
        </mxCell>
        <mxCell id="_BJFXlvesHHBChjdj6PS-76" value="&lt;div&gt;Count&lt;/div&gt;&lt;div&gt;I = L, H, 1&lt;br&gt;&lt;/div&gt;" style="shape=hexagon;perimeter=hexagonPerimeter2;whiteSpace=wrap;html=1;fixedSize=1;fontFamily=Helvetica;fontSize=14;fillColor=#00FFFF;" parent="WIyWlLk6GJQsqaUBKTNV-1" vertex="1">
          <mxGeometry x="389" y="1720" width="120" height="80" as="geometry" />
        </mxCell>
        <mxCell id="_BJFXlvesHHBChjdj6PS-79" value="" style="edgeStyle=orthogonalEdgeStyle;rounded=0;orthogonalLoop=1;jettySize=auto;html=1;fontFamily=Helvetica;fontSize=14;exitX=1;exitY=0.5;exitDx=0;exitDy=0;" parent="WIyWlLk6GJQsqaUBKTNV-1" source="_BJFXlvesHHBChjdj6PS-76" target="_BJFXlvesHHBChjdj6PS-74" edge="1">
          <mxGeometry relative="1" as="geometry">
            <mxPoint x="799.5" y="1840" as="sourcePoint" />
          </mxGeometry>
        </mxCell>
        <mxCell id="_BJFXlvesHHBChjdj6PS-85" value="" style="edgeStyle=orthogonalEdgeStyle;rounded=0;orthogonalLoop=1;jettySize=auto;html=1;fontFamily=Helvetica;fontSize=12;endArrow=none;" parent="WIyWlLk6GJQsqaUBKTNV-1" edge="1">
          <mxGeometry relative="1" as="geometry">
            <mxPoint x="340" y="1840" as="sourcePoint" />
            <mxPoint x="340" y="1840" as="targetPoint" />
            <Array as="points">
              <mxPoint x="340" y="1840" />
            </Array>
          </mxGeometry>
        </mxCell>
        <mxCell id="_BJFXlvesHHBChjdj6PS-92" value="" style="edgeStyle=orthogonalEdgeStyle;rounded=0;orthogonalLoop=1;jettySize=auto;html=1;fontFamily=Helvetica;fontSize=12;" parent="WIyWlLk6GJQsqaUBKTNV-1" target="_BJFXlvesHHBChjdj6PS-91" edge="1">
          <mxGeometry relative="1" as="geometry">
            <mxPoint x="209" y="1600" as="sourcePoint" />
          </mxGeometry>
        </mxCell>
        <mxCell id="_BJFXlvesHHBChjdj6PS-93" value="" style="edgeStyle=orthogonalEdgeStyle;rounded=0;orthogonalLoop=1;jettySize=auto;html=1;fontFamily=Helvetica;fontSize=12;" parent="WIyWlLk6GJQsqaUBKTNV-1" source="_BJFXlvesHHBChjdj6PS-91" target="_BJFXlvesHHBChjdj6PS-94" edge="1">
          <mxGeometry relative="1" as="geometry" />
        </mxCell>
        <mxCell id="_BJFXlvesHHBChjdj6PS-91" value="" style="shape=waypoint;sketch=0;size=6;pointerEvents=1;points=[];fillColor=#00FFFF;resizable=0;rotatable=0;perimeter=centerPerimeter;snapToPoint=1;rounded=0;" parent="WIyWlLk6GJQsqaUBKTNV-1" vertex="1">
          <mxGeometry x="429" y="1580" width="40" height="40" as="geometry" />
        </mxCell>
        <mxCell id="_BJFXlvesHHBChjdj6PS-95" value="" style="edgeStyle=orthogonalEdgeStyle;rounded=0;orthogonalLoop=1;jettySize=auto;html=1;fontFamily=Helvetica;fontSize=12;" parent="WIyWlLk6GJQsqaUBKTNV-1" source="_BJFXlvesHHBChjdj6PS-94" target="_BJFXlvesHHBChjdj6PS-76" edge="1">
          <mxGeometry relative="1" as="geometry" />
        </mxCell>
        <mxCell id="_BJFXlvesHHBChjdj6PS-94" value="SumVecA = 0" style="rounded=0;whiteSpace=wrap;html=1;fillColor=#00FFFF;align=center;" parent="WIyWlLk6GJQsqaUBKTNV-1" vertex="1">
          <mxGeometry x="369" y="1640" width="160" height="40" as="geometry" />
        </mxCell>
        <mxCell id="_BJFXlvesHHBChjdj6PS-101" value="" style="edgeStyle=orthogonalEdgeStyle;rounded=0;orthogonalLoop=1;jettySize=auto;html=1;fontFamily=Helvetica;fontSize=12;" parent="WIyWlLk6GJQsqaUBKTNV-1" source="_BJFXlvesHHBChjdj6PS-96" target="_BJFXlvesHHBChjdj6PS-100" edge="1">
          <mxGeometry relative="1" as="geometry">
            <Array as="points">
              <mxPoint x="329" y="1860" />
              <mxPoint x="329" y="1760" />
            </Array>
          </mxGeometry>
        </mxCell>
        <mxCell id="_BJFXlvesHHBChjdj6PS-96" value="SumVecA = SunVecA + VecA[I]" style="rounded=0;whiteSpace=wrap;html=1;fillColor=#00FFFF;align=center;" parent="WIyWlLk6GJQsqaUBKTNV-1" vertex="1">
          <mxGeometry x="353.5" y="1840" width="191" height="40" as="geometry" />
        </mxCell>
        <mxCell id="_BJFXlvesHHBChjdj6PS-100" value="" style="shape=waypoint;sketch=0;size=6;pointerEvents=1;points=[];fillColor=#00FFFF;resizable=0;rotatable=0;perimeter=centerPerimeter;snapToPoint=1;rounded=0;" parent="WIyWlLk6GJQsqaUBKTNV-1" vertex="1">
          <mxGeometry x="369" y="1740" width="40" height="40" as="geometry" />
        </mxCell>
        <mxCell id="_BJFXlvesHHBChjdj6PS-102" value="&lt;div&gt;&lt;pre dir=&quot;ltr&quot; style=&quot;text-align:left&quot; id=&quot;tw-target-text&quot; data-placeholder=&quot;Перевод&quot; class=&quot;tw-data-text tw-text-large tw-ta&quot;&gt;&lt;span class=&quot;Y2IQFc&quot; lang=&quot;en&quot;&gt;Index I_MAX_I_MIN&lt;br&gt;&lt;/span&gt;&lt;/pre&gt;&lt;/div&gt;&lt;div&gt;Input: N, vecA&lt;/div&gt;&lt;div&gt;Output: I_MAX, I_MIN&lt;br&gt;&lt;/div&gt;" style="shape=process;whiteSpace=wrap;html=1;backgroundOutline=1;fontFamily=Helvetica;fontSize=14;fillColor=#FF8040;" parent="WIyWlLk6GJQsqaUBKTNV-1" vertex="1">
          <mxGeometry x="600" y="120" width="200" height="80" as="geometry" />
        </mxCell>
        <mxCell id="_BJFXlvesHHBChjdj6PS-105" value="" style="edgeStyle=orthogonalEdgeStyle;rounded=0;orthogonalLoop=1;jettySize=auto;html=1;fontFamily=Helvetica;fontSize=12;" parent="WIyWlLk6GJQsqaUBKTNV-1" source="_BJFXlvesHHBChjdj6PS-106" target="_BJFXlvesHHBChjdj6PS-109" edge="1">
          <mxGeometry relative="1" as="geometry" />
        </mxCell>
        <mxCell id="_BJFXlvesHHBChjdj6PS-106" value="Start" style="strokeWidth=2;html=1;shape=mxgraph.flowchart.start_1;whiteSpace=wrap;fillColor=#FF0000;" parent="WIyWlLk6GJQsqaUBKTNV-1" vertex="1">
          <mxGeometry x="185" y="1880" width="100" height="60" as="geometry" />
        </mxCell>
        <mxCell id="_BJFXlvesHHBChjdj6PS-107" value="&lt;b&gt;Задача 4&lt;br&gt;&lt;/b&gt;" style="text;html=1;align=center;verticalAlign=middle;resizable=0;points=[];autosize=1;strokeColor=none;fillColor=none;fontSize=14;fontFamily=Helvetica;" parent="WIyWlLk6GJQsqaUBKTNV-1" vertex="1">
          <mxGeometry x="51" y="1880" width="80" height="30" as="geometry" />
        </mxCell>
        <mxCell id="_BJFXlvesHHBChjdj6PS-134" value="" style="edgeStyle=orthogonalEdgeStyle;rounded=0;orthogonalLoop=1;jettySize=auto;html=1;fontFamily=Helvetica;fontSize=12;" parent="WIyWlLk6GJQsqaUBKTNV-1" source="_BJFXlvesHHBChjdj6PS-109" edge="1">
          <mxGeometry relative="1" as="geometry">
            <mxPoint x="235" y="2080" as="targetPoint" />
          </mxGeometry>
        </mxCell>
        <mxCell id="_BJFXlvesHHBChjdj6PS-109" value="&lt;div&gt;Input&lt;/div&gt;&lt;div&gt;&lt;b&gt;N, vecA [0..N]&lt;/b&gt;&lt;/div&gt;&lt;div&gt;SumVecA = 0&lt;b&gt;&lt;/b&gt;&lt;/div&gt;" style="shape=parallelogram;perimeter=parallelogramPerimeter;whiteSpace=wrap;html=1;fixedSize=1;fillColor=#00FF00;" parent="WIyWlLk6GJQsqaUBKTNV-1" vertex="1">
          <mxGeometry x="155" y="1980" width="160" height="60" as="geometry" />
        </mxCell>
        <mxCell id="_BJFXlvesHHBChjdj6PS-117" value="End" style="strokeWidth=2;html=1;shape=mxgraph.flowchart.start_1;whiteSpace=wrap;fillColor=#FF0000;" parent="WIyWlLk6GJQsqaUBKTNV-1" vertex="1">
          <mxGeometry x="590" y="2180" width="100" height="60" as="geometry" />
        </mxCell>
        <mxCell id="_BJFXlvesHHBChjdj6PS-118" value="" style="edgeStyle=orthogonalEdgeStyle;rounded=0;orthogonalLoop=1;jettySize=auto;html=1;fontFamily=Helvetica;fontSize=14;" parent="WIyWlLk6GJQsqaUBKTNV-1" source="_BJFXlvesHHBChjdj6PS-119" target="_BJFXlvesHHBChjdj6PS-117" edge="1">
          <mxGeometry relative="1" as="geometry" />
        </mxCell>
        <mxCell id="_BJFXlvesHHBChjdj6PS-119" value="&lt;div&gt;Output&lt;/div&gt;SumVecA" style="shape=document;whiteSpace=wrap;html=1;boundedLbl=1;fillColor=#00FF00;" parent="WIyWlLk6GJQsqaUBKTNV-1" vertex="1">
          <mxGeometry x="580" y="2080" width="120" height="80" as="geometry" />
        </mxCell>
        <mxCell id="_BJFXlvesHHBChjdj6PS-120" value="" style="edgeStyle=orthogonalEdgeStyle;rounded=0;orthogonalLoop=1;jettySize=auto;html=1;fontFamily=Helvetica;fontSize=12;" parent="WIyWlLk6GJQsqaUBKTNV-1" source="_BJFXlvesHHBChjdj6PS-121" target="_BJFXlvesHHBChjdj6PS-130" edge="1">
          <mxGeometry relative="1" as="geometry" />
        </mxCell>
        <mxCell id="_BJFXlvesHHBChjdj6PS-137" value="" style="edgeStyle=orthogonalEdgeStyle;rounded=0;orthogonalLoop=1;jettySize=auto;html=1;fontFamily=Helvetica;fontSize=12;" parent="WIyWlLk6GJQsqaUBKTNV-1" source="_BJFXlvesHHBChjdj6PS-121" target="_BJFXlvesHHBChjdj6PS-136" edge="1">
          <mxGeometry relative="1" as="geometry" />
        </mxCell>
        <mxCell id="_BJFXlvesHHBChjdj6PS-121" value="&lt;div&gt;Count&lt;/div&gt;&lt;div&gt;I = 0, N, 1&lt;br&gt;&lt;/div&gt;" style="shape=hexagon;perimeter=hexagonPerimeter2;whiteSpace=wrap;html=1;fixedSize=1;fontFamily=Helvetica;fontSize=14;fillColor=#00FFFF;" parent="WIyWlLk6GJQsqaUBKTNV-1" vertex="1">
          <mxGeometry x="170" y="2080" width="120" height="80" as="geometry" />
        </mxCell>
        <mxCell id="_BJFXlvesHHBChjdj6PS-123" value="" style="edgeStyle=orthogonalEdgeStyle;rounded=0;orthogonalLoop=1;jettySize=auto;html=1;fontFamily=Helvetica;fontSize=12;endArrow=none;" parent="WIyWlLk6GJQsqaUBKTNV-1" edge="1">
          <mxGeometry relative="1" as="geometry">
            <mxPoint x="320" y="2220" as="sourcePoint" />
            <mxPoint x="320" y="2220" as="targetPoint" />
            <Array as="points">
              <mxPoint x="320" y="2220" />
            </Array>
          </mxGeometry>
        </mxCell>
        <mxCell id="_BJFXlvesHHBChjdj6PS-129" value="" style="edgeStyle=orthogonalEdgeStyle;rounded=0;orthogonalLoop=1;jettySize=auto;html=1;fontFamily=Helvetica;fontSize=12;" parent="WIyWlLk6GJQsqaUBKTNV-1" source="_BJFXlvesHHBChjdj6PS-130" target="_BJFXlvesHHBChjdj6PS-131" edge="1">
          <mxGeometry relative="1" as="geometry">
            <Array as="points">
              <mxPoint x="110" y="2220" />
              <mxPoint x="110" y="2120" />
            </Array>
          </mxGeometry>
        </mxCell>
        <mxCell id="_BJFXlvesHHBChjdj6PS-130" value="SumVecA = SunVecA + VecA[I]" style="rounded=0;whiteSpace=wrap;html=1;fillColor=#00FFFF;align=center;" parent="WIyWlLk6GJQsqaUBKTNV-1" vertex="1">
          <mxGeometry x="140" y="2200" width="180" height="40" as="geometry" />
        </mxCell>
        <mxCell id="_BJFXlvesHHBChjdj6PS-131" value="" style="shape=waypoint;sketch=0;size=6;pointerEvents=1;points=[];fillColor=#00FFFF;resizable=0;rotatable=0;perimeter=centerPerimeter;snapToPoint=1;rounded=0;" parent="WIyWlLk6GJQsqaUBKTNV-1" vertex="1">
          <mxGeometry x="150" y="2100" width="40" height="40" as="geometry" />
        </mxCell>
        <mxCell id="_BJFXlvesHHBChjdj6PS-138" value="" style="edgeStyle=orthogonalEdgeStyle;rounded=0;orthogonalLoop=1;jettySize=auto;html=1;fontFamily=Helvetica;fontSize=12;" parent="WIyWlLk6GJQsqaUBKTNV-1" source="_BJFXlvesHHBChjdj6PS-136" target="_BJFXlvesHHBChjdj6PS-119" edge="1">
          <mxGeometry relative="1" as="geometry" />
        </mxCell>
        <mxCell id="_BJFXlvesHHBChjdj6PS-136" value="SumVecA = SunVecA/N" style="rounded=0;whiteSpace=wrap;html=1;fillColor=#00FFFF;align=center;" parent="WIyWlLk6GJQsqaUBKTNV-1" vertex="1">
          <mxGeometry x="360" y="2100" width="160" height="40" as="geometry" />
        </mxCell>
        <mxCell id="53o0GiQYbjhxHgjqAaeX-2" value="" style="edgeStyle=orthogonalEdgeStyle;rounded=0;orthogonalLoop=1;jettySize=auto;html=1;fontFamily=Helvetica;fontSize=12;" edge="1" parent="WIyWlLk6GJQsqaUBKTNV-1" source="53o0GiQYbjhxHgjqAaeX-0" target="_BJFXlvesHHBChjdj6PS-14">
          <mxGeometry relative="1" as="geometry" />
        </mxCell>
        <mxCell id="53o0GiQYbjhxHgjqAaeX-0" value="vecA=vecOUT" style="rounded=0;whiteSpace=wrap;html=1;fillColor=#00FFFF;align=center;" vertex="1" parent="WIyWlLk6GJQsqaUBKTNV-1">
          <mxGeometry x="200" y="940" width="160" height="40" as="geometry" />
        </mxCell>
        <mxCell id="53o0GiQYbjhxHgjqAaeX-4" value="" style="edgeStyle=orthogonalEdgeStyle;rounded=0;orthogonalLoop=1;jettySize=auto;html=1;fontFamily=Helvetica;fontSize=12;" edge="1" source="53o0GiQYbjhxHgjqAaeX-5" target="53o0GiQYbjhxHgjqAaeX-8" parent="WIyWlLk6GJQsqaUBKTNV-1">
          <mxGeometry relative="1" as="geometry" />
        </mxCell>
        <mxCell id="53o0GiQYbjhxHgjqAaeX-5" value="Start" style="strokeWidth=2;html=1;shape=mxgraph.flowchart.start_1;whiteSpace=wrap;fillColor=#FF0000;" vertex="1" parent="WIyWlLk6GJQsqaUBKTNV-1">
          <mxGeometry x="453" y="710" width="100" height="60" as="geometry" />
        </mxCell>
        <mxCell id="53o0GiQYbjhxHgjqAaeX-6" value="End" style="strokeWidth=2;html=1;shape=mxgraph.flowchart.start_1;whiteSpace=wrap;fillColor=#FF0000;" vertex="1" parent="WIyWlLk6GJQsqaUBKTNV-1">
          <mxGeometry x="619" y="1060" width="100" height="60" as="geometry" />
        </mxCell>
        <mxCell id="53o0GiQYbjhxHgjqAaeX-7" value="" style="edgeStyle=orthogonalEdgeStyle;rounded=0;orthogonalLoop=1;jettySize=auto;html=1;fontFamily=Helvetica;fontSize=14;" edge="1" source="53o0GiQYbjhxHgjqAaeX-8" target="53o0GiQYbjhxHgjqAaeX-13" parent="WIyWlLk6GJQsqaUBKTNV-1">
          <mxGeometry relative="1" as="geometry" />
        </mxCell>
        <mxCell id="53o0GiQYbjhxHgjqAaeX-8" value="&lt;div&gt;Input&lt;/div&gt;&lt;div&gt;&lt;b&gt;N, vecA [0..N]&lt;/b&gt;&lt;/div&gt;" style="shape=parallelogram;perimeter=parallelogramPerimeter;whiteSpace=wrap;html=1;fixedSize=1;fillColor=#00FF00;" vertex="1" parent="WIyWlLk6GJQsqaUBKTNV-1">
          <mxGeometry x="423" y="790" width="160" height="60" as="geometry" />
        </mxCell>
        <mxCell id="53o0GiQYbjhxHgjqAaeX-9" value="" style="edgeStyle=orthogonalEdgeStyle;rounded=0;orthogonalLoop=1;jettySize=auto;html=1;fontFamily=Helvetica;fontSize=14;" edge="1" source="53o0GiQYbjhxHgjqAaeX-10" target="53o0GiQYbjhxHgjqAaeX-6" parent="WIyWlLk6GJQsqaUBKTNV-1">
          <mxGeometry relative="1" as="geometry" />
        </mxCell>
        <mxCell id="53o0GiQYbjhxHgjqAaeX-10" value="&lt;div&gt;Output&lt;/div&gt;vecA" style="shape=document;whiteSpace=wrap;html=1;boundedLbl=1;fillColor=#00FF00;" vertex="1" parent="WIyWlLk6GJQsqaUBKTNV-1">
          <mxGeometry x="609" y="880" width="120" height="80" as="geometry" />
        </mxCell>
        <mxCell id="53o0GiQYbjhxHgjqAaeX-11" value="" style="edgeStyle=orthogonalEdgeStyle;rounded=0;orthogonalLoop=1;jettySize=auto;html=1;fontFamily=Helvetica;fontSize=12;" edge="1" source="53o0GiQYbjhxHgjqAaeX-13" target="53o0GiQYbjhxHgjqAaeX-15" parent="WIyWlLk6GJQsqaUBKTNV-1">
          <mxGeometry relative="1" as="geometry" />
        </mxCell>
        <mxCell id="53o0GiQYbjhxHgjqAaeX-19" value="" style="edgeStyle=orthogonalEdgeStyle;rounded=0;orthogonalLoop=1;jettySize=auto;html=1;fontFamily=Helvetica;fontSize=12;" edge="1" parent="WIyWlLk6GJQsqaUBKTNV-1" source="53o0GiQYbjhxHgjqAaeX-13" target="53o0GiQYbjhxHgjqAaeX-10">
          <mxGeometry relative="1" as="geometry" />
        </mxCell>
        <mxCell id="53o0GiQYbjhxHgjqAaeX-13" value="&lt;div&gt;Count&lt;/div&gt;&lt;div&gt;I = 0, N/2 , 1&lt;br&gt;&lt;/div&gt;" style="shape=hexagon;perimeter=hexagonPerimeter2;whiteSpace=wrap;html=1;fixedSize=1;fontFamily=Helvetica;fontSize=14;fillColor=#00FFFF;" vertex="1" parent="WIyWlLk6GJQsqaUBKTNV-1">
          <mxGeometry x="443" y="880" width="120" height="80" as="geometry" />
        </mxCell>
        <mxCell id="53o0GiQYbjhxHgjqAaeX-15" value="&lt;div&gt;tmp = vecA[I]&lt;/div&gt;&lt;div&gt;vecA[I] = vecA[N - I]&lt;/div&gt;&lt;div&gt;vecA[N-I] = tmp&lt;br&gt;&lt;/div&gt;" style="rounded=0;whiteSpace=wrap;html=1;fillColor=#00FFFF;align=center;" vertex="1" parent="WIyWlLk6GJQsqaUBKTNV-1">
          <mxGeometry x="423" y="1000" width="160" height="80" as="geometry" />
        </mxCell>
        <mxCell id="53o0GiQYbjhxHgjqAaeX-16" value="" style="edgeStyle=orthogonalEdgeStyle;rounded=0;orthogonalLoop=1;jettySize=auto;html=1;fontFamily=Helvetica;fontSize=12;startArrow=none;entryX=0;entryY=0.5;entryDx=0;entryDy=0;exitX=0;exitY=0.5;exitDx=0;exitDy=0;" edge="1" target="53o0GiQYbjhxHgjqAaeX-13" parent="WIyWlLk6GJQsqaUBKTNV-1" source="53o0GiQYbjhxHgjqAaeX-15">
          <mxGeometry relative="1" as="geometry">
            <mxPoint x="400" y="1040" as="sourcePoint" />
            <Array as="points">
              <mxPoint x="399" y="1040" />
              <mxPoint x="399" y="920" />
            </Array>
            <mxPoint x="409" y="920" as="targetPoint" />
          </mxGeometry>
        </mxCell>
        <mxCell id="53o0GiQYbjhxHgjqAaeX-20" value="ИЛИ" style="text;html=1;align=center;verticalAlign=middle;resizable=0;points=[];autosize=1;strokeColor=none;fillColor=none;fontSize=14;fontFamily=Helvetica;" vertex="1" parent="WIyWlLk6GJQsqaUBKTNV-1">
          <mxGeometry x="310" y="735" width="50" height="30" as="geometry" />
        </mxCell>
      </root>
    </mxGraphModel>
  </diagram>
</mxfile>
